<svg width="29" height="26" viewBox="0 0 29 26" fill="none" xmlns="http://www.w3.org/2000/svg">
<path d="M6.35737 5.04384L12.5932 11.2536C13.2787 10.8766 14.069 10.7353 14.8426 10.8516C15.6162 10.9678 16.3301 11.3351 16.8745 11.8969C17.4188 12.4587 17.7634 13.1839 17.8552 13.9608C17.947 14.7376 17.7809 15.5231 17.3824 16.1963C16.984 16.8695 16.3753 17.3931 15.6501 17.6864C14.9249 17.9797 14.1234 18.0266 13.369 17.8197C12.6146 17.6128 11.9491 17.1637 11.475 16.5415C11.0009 15.9192 10.7444 15.1584 10.7451 14.3762C10.7446 13.772 10.8984 13.1777 11.1917 12.6495L4.9577 6.43789C3.28057 8.40765 2.26647 10.8556 2.05933 13.4343H4.35037V15.4077H2.05933C2.26895 17.986 3.28795 20.4321 4.97078 22.3967L6.59095 20.7821L7.99249 22.178L4.93715 25.2166C2.72878 23.2944 1.16 20.7438 0.440655 17.9059C-0.278689 15.0679 -0.114291 12.078 0.911858 9.33603C1.93801 6.59405 3.77697 4.2308 6.18276 2.5624C8.58855 0.893996 11.4464 0 14.3741 0C17.3018 0 20.1597 0.893996 22.5655 2.5624C24.9713 4.2308 26.8102 6.59405 27.8364 9.33603C28.8625 12.078 29.0269 15.0679 28.3076 17.9059C27.5883 20.7438 26.0195 23.2944 23.8111 25.2166L20.7595 22.1762L22.1592 20.7821L23.7793 22.3948C25.4609 20.429 26.4785 17.9824 26.687 15.404H24.396V13.4269H26.6908C26.4827 10.8478 25.4651 8.40036 23.7831 6.43416L22.1592 8.04685L20.7576 6.65279L22.3834 5.03262C20.4036 3.3556 17.9472 2.34246 15.3608 2.13612V4.43464H13.38V2.14173C10.7929 2.34941 8.33635 3.36457 6.35737 5.04384Z" fill="white"/>
</svg>
